<?xml version="1.0" encoding="utf-8"?>
<!-- Generator: Adobe Illustrator 28.1.0, SVG Export Plug-In . SVG Version: 6.00 Build 0)  -->
<svg version="1.1" id="Layer_1" xmlns="http://www.w3.org/2000/svg" xmlns:xlink="http://www.w3.org/1999/xlink" x="0px" y="0px"
	 viewBox="0 0 1080 1080" style="enable-background:new 0 0 1080 1080;" xml:space="preserve">
<style type="text/css">
	.st0{fill:#FFFFFF;}
</style>
<g>
	<path d="M1068.57,400.48c-7.55-7.56-15.11-15.12-22.67-22.67c-6.13-6.25-12.17-12.83-20.81-15.63c2.67-5.81,4.1-12.18,4.1-18.75
		c0,0,0-84.79,0-84.79c0.08-10.24-4.91-18.68-12.02-25c-4.41-4.41-8.82-8.82-13.23-13.23c0.01-0.1,0.03-0.2,0.04-0.3l0.78-9.16
		c0,0,21.7-18.2,21.7-18.2c16.22-13.04,18.52-38.93,4.77-54.56c-2.53-2.99-32.65-39.38-34.68-40.67
		c-9.11-9.11-18.21-18.22-27.32-27.32c-6.33-6.31-14.87-9.9-23.9-9.9c-7.94,0-15.67,2.81-21.74,7.91c-2.3,1.92-5.2,2.98-8.19,2.98
		c0,0-810.76,0-810.76,0c-2.99,0-5.9-1.06-8.19-2.98c-13.66-11.94-36.3-10-47.68,4.18c0,0-30.35,36.15-30.35,36.15
		c-13.2,15.73-11.66,38.96,2.92,52.88c7.97,7.98,15.96,15.95,23.93,23.93l0.45,5.15c0.88,10.49,6.79,15.94,13.77,22.68
		c7.02,7.03,14.04,14.05,21.07,21.07c-10.3,12.04-9.85,30.94,1.05,42.46c4.32,4.69,7.55,8.75,9.9,12.11
		c-19.33,8.66-24.64,35.54-9.9,50.92c9.32,10.12,13.56,17.32,14.98,20.86v245.36c0,10.44-4.59,20.31-12.6,27.02
		c0,0-6.57,5.52-6.57,5.52c-6.59,5.53-10.62,13.29-11.36,21.84c-0.76,8.56,1.88,16.91,7.4,23.49l53.55,63.83
		c0.98,1.18,2.05,2.25,3.13,3.32c4.68,4.69,9.38,9.37,14.06,14.06l-29.82,25.03c-10.3-11.02-21.32-21.38-31.89-32.16
		c-16.02-16.32-44.29-6.06-46.16,16.68c0,0-0.81,9.19-0.81,9.19l-21.7,18.2c-7.93,6.66-12.8,16-13.69,26.31
		c-0.89,10.3,2.27,20.33,8.92,28.26c0.56,0.58,33.61,40.31,33.07,39.01c6.97,6.98,13.95,13.95,20.93,20.93
		c10.32,10.8,18.48,18.92,34.57,19.04c8.79,0,17.36-3.11,24.11-8.78L207.24,855c-0.1,0.75,0.03,107.18-0.02,108
		c0,7.62,3.16,14.5,8.22,19.42c7.17,7.17,14.34,14.34,21.51,21.51c8.05,8.12,14.16,15.8,26.97,15.78c0,0,25.14,0,25.14,0
		c14.95,0,27.06-12.11,27.06-27.06c0,0,0-6.32,0-6.32c1.18,0,2.45,0,3.61-0.03c8.41,8.39,16.79,16.8,25.2,25.19
		c4.92,5.07,11.8,8.22,19.42,8.22c0,0,25.14,0,25.14,0c8.56,0,16.21-3.99,21.16-10.21c5.42,6.07,12.72,10.28,21.41,10.21
		c0.67,0.01,28.14-0.01,27.94,0c0,0,26.41,0,26.41,0c12.05,0.04,22.67-8.05,26.04-19.59h1.89c3.84,3.83,7.66,7.67,11.5,11.5
		c4.98,5.06,11.87,8.09,19.29,8.09c2.09-0.07,28.7,0.22,30.01-0.24c1.32,0.46,26.49,0.17,28.59,0.24c9.16,0,17.24-4.55,22.14-11.5
		c5.95,6.67,13.33,11.64,22.71,11.5c1.94-0.06,29.32,0.21,30.37-0.24c1.32,0.43,27.86,0.19,30.01,0.24
		c12.05,0.04,22.67-8.05,26.04-19.59h1.89c3.84,3.83,7.66,7.67,11.5,11.5c4.98,5.06,11.87,8.09,19.29,8.09h26.39
		c4.57,0,8.98-1.15,12.89-3.27c3.87,2.1,8.27,3.27,12.87,3.27h29.8c11.22,0,21.28-6.91,25.27-17.4l13.51-35.38
		c2.56,5.96,6.95,10.61,11.55,15.01c3.87,3.88,7.75,7.75,11.63,11.63c12.75,12.23,21.14,25.35,41.08,25.38c0,0,89.35,0,89.35,0
		c20.93,0,37.96-17.03,37.96-37.98c0,0,0-553.35,0-553.35C1080,416.99,1075.61,407.38,1068.57,400.48z M239.56,827.88v0.86h-1.03
		L239.56,827.88z"/>
	<path class="st0" d="M980.87,125.94l-30.33-36.15c-2.41-2.87-6.68-3.25-9.55-0.84v0c-7.17,6.01-16.22,9.31-25.58,9.31H104.65
		c-9.35,0-18.41-3.3-25.58-9.31l0,0c-2.87-2.41-7.14-2.03-9.55,0.84L39.2,125.94c-4.14,4.94-3.5,12.3,1.43,16.44l22.93,19.24
		c4.71,3.96,7.66,9.63,8.2,15.76l0.95,10.76l28.76-34.28h22.21v84.23l-0.23,0.03c0.11,9.46-9.56,11.64-18.27,11.69
		c-4.42,0.02-6.65,5.33-3.65,8.58c8.48,9.19,19.71,23.26,22.15,35.54v7.2l-0.23,0.03c0.11,9.46-9.56,11.64-18.27,11.69
		c-4.42,0.02-6.65,5.33-3.65,8.58c8.48,9.19,19.71,23.26,22.15,35.54v249.02c0,18.42-8.15,35.91-22.26,47.75l-6.58,5.52
		c-2.16,1.81-2.44,5.04-0.63,7.2l53.55,63.83c3.71,4.42,10.31,5,14.73,1.29l104.12-87.36v53.47L117.16,823.09
		c-4.92,4.13-12.24,3.48-16.37-1.43l-28.78-34.3l-8.71-10.39l-0.95,10.77c-0.54,6.13-3.49,11.8-8.2,15.75l-22.93,19.24
		c-4.94,4.14-5.57,11.5-1.43,16.44l30.17,35.94c3.71,4.42,10.31,5,14.73,1.29l191.92-161.05v121.44h55.59V153.85h49.06v452.13
		c0,18.43-8.15,35.91-22.26,47.75l-6.56,5.51c-2.16,1.81-2.44,5.04-0.63,7.2l53.54,63.82c3.71,4.42,10.31,5,14.73,1.29L565.32,601.3
		c2.83-2.38,4.47-5.89,4.47-9.59V153.85h19.58v682.92h55.59V153.85h191.99v203.1l-11.21-13.36c-5.35-6.38-14.87-7.22-21.25-1.86
		L694.04,434.4c0,0.3-0.01,0.6-0.03,0.89c-0.64,11.42-11.37,25.36-19.64,34.51c-2.91,3.21-0.26,4.49,5.5,11.59
		c6.24,7.69,13.7,23.92,13.7,79.48l0.45,0.04v45.07c0,18.43-8.15,35.91-22.26,47.75l-6.56,5.51c-2.16,1.81-2.44,5.04-0.63,7.2
		l53.55,63.82c3.71,4.42,10.31,5,14.73,1.29l104.1-87.36v192.57h55.59V153.85h26.06l28.78,34.28l0.93-10.76
		c0.54-6.13,3.49-11.8,8.2-15.76l22.93-19.24C984.38,138.23,985.03,130.87,980.87,125.94z M266.62,626.52l-61.63,51.72
		c-4.91,4.12-12.24,3.48-16.37-1.43l-9.36-11.15V153.85h87.36V626.52z M514.2,626.54l-61.63,51.71c-4.91,4.12-12.24,3.48-16.37-1.43
		l-9.36-11.15V153.85h87.36V626.54z M836.95,626.52l-15.49,13.01c-0.05,0.04-0.09,0.08-0.15,0.12c-8.43,6.87-17.59-2.58-23.07-10.22
		c-1.71-2.39-5.46-1.41-5.8,1.51c-1.56,13.51-5.86,37.72-17.03,47.21c-0.03,0.03-0.07,0.05-0.09,0.08l0,0
		c-4.92,4.12-12.25,3.48-16.37-1.43l-9.35-11.15V405.43l12.05-10.11c7.07-5.93,17.61-5.01,23.54,2.06l51.75,61.68V626.52z"/>
	<path class="st0" d="M912.13,278.44v42.69c0,3.74,4.36,5.77,7.23,3.37l27.36-22.96c1.54-1.29,3.88-0.2,3.88,1.81v12.41
		c0,1.78-0.79,3.48-2.16,4.62l-30.01,25.18c-3.99,3.35-6.3,8.3-6.3,13.51v4.22c0,3.74,4.36,5.77,7.23,3.37l46.76-39.23
		c4.04-3.39,6.37-8.39,6.37-13.66V229c0-3.74-4.36-5.77-7.23-3.37l-46.83,39.29C914.44,268.28,912.13,273.22,912.13,278.44z"/>
	<g>
		<path class="st0" d="M326.55,892.09c0,25.73-14.65,37.52-39.03,37.52h-28.1V963h-25.13v-107.2h55.63
			C314.29,855.79,326.55,870.19,326.55,892.09z M300.9,892.09c0-8.12-3.03-14.55-14.53-14.55h-26.96v30.47h26.96
			C298,908.01,300.9,900.05,300.9,892.09z"/>
		<path class="st0" d="M389.17,925.73c-12.13,0-29.33,0-29.33,0v37.26h-25.13v-107.2h55.63c24.51,0,37.76,13.07,37.76,34.97
			c0,16.54-9.31,22.15-17.68,23.82c5.76,0,16.83,5.73,16.83,21.94c0,13.32,0.07,17,1.19,26.48c-3.32,0-26.01,0-26.01,0
			s-1.47-13.46-1.21-23.14C401.48,930.1,395.55,925.73,389.17,925.73z M359.84,904.14h29.74c11.49,0,13.01-8.33,13.01-13.38
			c0-5.05-1.39-13.23-13.01-13.23h-29.74V904.14z"/>
		<path class="st0" d="M508.79,943.39h-45.21l-6.82,19.6h-26.4l40.92-107.2h29.81l40.8,107.2h-26.4L508.79,943.39z M501.22,921.64
			l-15.03-43.19l-15.03,43.19H501.22z"/>
		<path class="st0" d="M645.84,855.79V963h-26.9l-44.84-71.37v71.36h-25.13v-107.2h26.9l44.83,71.36v-71.36H645.84z"/>
		<path class="st0" d="M731.35,943.39h-45.21l-6.82,19.6h-26.4l40.92-107.2h29.81l40.8,107.2h-26.4L731.35,943.39z M723.77,921.64
			l-15.03-43.19l-15.03,43.19H723.77z"/>
		<path class="st0" d="M860.93,855.79L820.01,963h-29.8l-40.92-107.2h26.4l29.43,84.54l29.43-84.54H860.93z"/>
		<path class="st0" d="M892.31,855.79l-4.29,50.23h-17.46l-4.44-50.23H892.31z"/>
	</g>
	<g>
		<path class="st0" d="M912.13,526.72v34.74c1.78-1.02,3.93-1.37,6.07-0.81c5.27,1.37,34.64-2.34,67.64-15.77
			c10.5-4.27,24.77-10.99,37.46-20.03v-37.99c-16.26,4.97-35.41,12.94-53.94,20.65C940.26,519.62,922.75,526.65,912.13,526.72z"/>
		<path class="st0" d="M1023.3,544.33c-10.38,6.33-21.29,11.49-31.34,15.58c-25.15,10.23-54.44,17.19-70.42,17.19
			c-2.97,0-5.48-0.24-7.42-0.74c-0.71-0.19-1.38-0.47-1.99-0.82v25.04l111.17-54.85V544.33z"/>
		<path class="st0" d="M921.75,467.83c9.54-7.44,19.14-11.5,27.74-12.16c-4.07-10.53-6.22-20.74-7.68-29.5
			c-0.74-4.42,2.25-8.6,6.67-9.34c4.43-0.74,8.6,2.25,9.34,6.67c2.32,13.93,6.55,31.95,18.71,47.73c2.74,3.55,2.08,8.65-1.47,11.38
			c-1.48,1.14-3.22,1.69-4.95,1.69c-2.43,0-4.83-1.09-6.43-3.16c-1.53-1.99-2.93-4-4.26-6.02c-6.01-7.17-18.66-1.53-27.7,5.51
			c-13.2,10.29-20.02,23.51-18.33,29.86c8.18-0.69,31.98-10.6,49.72-17.98c24.2-10.07,44.22-18.12,60.18-22.62v-71.57
			c0-3.44-1.58-6.51-4.05-8.53c-3.35,12.62-7.11,31.38-2.54,50.9c1.02,4.37-1.69,8.73-6.06,9.75c-0.62,0.14-1.24,0.21-1.85,0.21
			c-3.69,0-7.02-2.53-7.9-6.27c-5.18-22.16-1.45-42.81,2.22-57.09h-79.97c-6.09,0-11.02,4.93-11.02,11.02v78.35
			C915.09,473.48,918.33,470.5,921.75,467.83z M976.05,405.63c0.48-4.46,4.49-7.68,8.94-7.2c4.46,0.48,7.68,4.48,7.2,8.94
			c-1.84,17.02,1.18,31.59,9.47,45.86c2.25,3.88,0.94,8.84-2.94,11.1c-1.28,0.75-2.69,1.1-4.07,1.1c-2.8,0-5.52-1.45-7.03-4.04
			C977.64,444.22,973.85,425.98,976.05,405.63z"/>
		<path class="st0" d="M996.85,618.84c-1.87-2.18-3.65-4.25-5.37-6.19c-2.98-3.35-2.69-8.48,0.66-11.46
			c3.35-2.98,8.48-2.69,11.46,0.66c1.79,2.01,3.64,4.16,5.58,6.43c4.08,4.76,8.65,10.08,14.12,15.64v-8.32
			c-8.46-6.56-15.2-13.57-20.34-19.33c-2.98-3.35-2.69-8.48,0.66-11.46c3.34-2.98,8.48-2.69,11.46,0.66
			c2.36,2.65,5.11,5.59,8.22,8.61v-30.25l-65.33,32.23c5.1,14.29,17.64,48.09,29.13,68.3c2.22,3.9,0.85,8.85-3.04,11.07
			c-1.27,0.72-2.65,1.06-4.01,1.06c-2.82,0-5.57-1.48-7.06-4.11c-11.78-20.72-24.1-53.51-29.68-69.09l-31.17,15.38v147.21
			c0.37-1.21,1.01-2.35,1.95-3.3c47.47-48.08,28.1-99.12,21.03-113.61c-1.96-4.03-0.29-8.89,3.74-10.85
			c4.03-1.96,8.89-0.29,10.85,3.74c6.92,14.2,23.98,58.41-3.19,105.16c13.23-5.82,28.73-12.22,42.29-16.73
			c-7.05-7.46-10.75-18.32-11.02-32.32c-0.09-4.48,3.48-8.19,7.96-8.27c4.47-0.07,8.19,3.48,8.27,7.96
			c0.2,10.57,2.76,18.13,7.61,22.47c4.21,3.78,9.28,4.29,11.49,4.32c0.67-0.05,1.3-0.07,1.91-0.07c4.3,0.01,7.88,3.33,8.14,7.64
			c0.26,4.3-2.9,8.05-7.18,8.55c-0.31,0.04-1.18,0.12-2.47,0.13c-16.41,1.4-63.4,21.86-90.1,34.89c-1.14,0.56-2.36,0.82-3.56,0.82
			c-2.55,0-5.03-1.2-6.6-3.38c-0.52-0.72-0.88-1.51-1.14-2.32v14.75c0.7-0.2,1.43-0.33,2.19-0.33c0.02,0,0.02,0,0.09,0
			c1.76,0,62.41-0.3,88.24-28.67c2.73-3.99,4.9-6.27,5.18-6.56c2.92-3.01,7.66-3.3,10.93-0.66c3.27,2.64,3.98,7.34,1.64,10.83
			c-1.53,2.29-3.21,4.46-5.02,6.5c-4.64,7.09-11.16,20.75-7.99,38.44c0.79,4.41-2.14,8.63-6.56,9.42c-4.42,0.8-8.63-2.15-9.42-6.56
			c-1.52-8.49-1.34-16.27-0.18-23.19c-16.29,8.3-34.79,12.48-49.59,14.58c17.25,11.25,29.4,23.18,37.9,33.86
			c7.98-5.33,16.71-10.11,25.88-13.42c4.22-1.52,8.87,0.66,10.39,4.88c1.52,4.22-0.66,8.87-4.88,10.39
			c-7.74,2.79-15.2,6.87-22.1,11.46c3.6,5.97,5.92,11.05,7.35,14.68c1.64,4.17-0.41,8.88-4.58,10.53c-0.98,0.38-1.98,0.57-2.97,0.57
			c-3.24,0-6.3-1.95-7.56-5.15c-1.09-2.76-2.78-6.5-5.32-10.88c-4.69,3.87-8.91,7.75-12.5,11.26c-1.58,1.55-3.63,2.32-5.68,2.32
			c-2.11,0-4.21-0.81-5.8-2.44c-3.14-3.2-3.08-8.34,0.12-11.48c4.15-4.06,9.09-8.57,14.63-13.07
			c-10.49-13.06-27.43-28.4-54.38-41.53v149.99c0,6.09,4.93,11.02,11.02,11.02h34.52c-0.13-2.39-0.39-5.19-0.86-8.37
			c-5.78,1.89-11.13,3.95-15.75,5.9c-1.03,0.44-2.1,0.64-3.16,0.64c-3.16,0-6.17-1.86-7.48-4.96c-1.75-4.13,0.18-8.89,4.31-10.64
			c5.35-2.26,11.6-4.65,18.39-6.81c-5.06-16.26-15.44-37.14-36.39-59.64c-2.79-3-2.91-7.62-0.27-10.76
			c2.64-3.14,7.21-3.82,10.64-1.58c0.45,0.29,44.43,28.3,76.9,10.58c2.91-2.03,4.9-3.03,5.19-3.17c3.81-1.86,8.41-0.46,10.56,3.2
			c2.14,3.66,1.11,8.35-2.38,10.77c-1.65,1.14-3.31,2.18-4.99,3.13c-5.84,4.29-16.53,14.43-20.28,33.18
			c-0.88,4.4-5.15,7.25-9.55,6.37c-4.4-0.88-7.25-5.16-6.37-9.55c1.72-8.62,4.63-15.87,8.02-21.89c-12.23,0.76-24.2-1.49-34.51-4.68
			c9.64,14.66,15.52,28.24,19.07,39.83c9.37-2.04,19.25-3.29,28.99-3.02c4.48,0.13,8.01,3.86,7.88,8.35
			c-0.13,4.48-3.85,7.99-8.35,7.88c-8.23-0.24-16.67,0.83-24.77,2.57c0.84,4.94,1.22,9.19,1.38,12.64h38.36
			c6.09,0,11.02-4.93,11.02-11.02V646.16C1011.85,636.34,1003.72,626.86,996.85,618.84z"/>
	</g>
</g>
</svg>
