<?xml version="1.0" encoding="UTF-8"?>
<svg id="Layer_1" xmlns="http://www.w3.org/2000/svg" version="1.1" viewBox="0 0 2500 2112.03">
  <path d="M1791.26,506.94l-28.34,23.79v893.02l21.99,26.22c9.71,11.56,26.94,13.06,38.51,3.38.06-.08.14-.14.22-.2,26.26-22.33,36.35-79.27,40.05-111.05.8-6.87,9.59-9.17,13.62-3.56,12.88,18,34.43,40.2,54.27,24.05.12-.1.22-.2.34-.28l36.43-30.62v-674.83l-121.71-145.06c-13.94-16.62-38.73-18.79-55.36-4.85"/>
  <path d="M1003.83,1423.74l22.01,26.22c9.71,11.56,26.94,13.06,38.51,3.38l144.94-121.61V220.01h-205.46v1203.73Z"/>
  <path d="M2478.84,236.73c-2.18-4.09-76.22-90.46-77.57-91.63-24.17-24.19-48.33-48.37-72.52-72.52C2297.07,44.35,2270.75-.9,2223.25.01c-18.68,0-36.85,6.63-51.13,18.61-5.39,4.51-12.22,7.01-19.25,7.01-23.27-6.73-1906.61,13.16-1925.96-6.97-32.18-28.12-85.4-23.57-112.19,9.79L43.36,113.5c-57.66,80.45,9.91,126.81,63.13,180.65.22,26.88,10.23,44.82,29.94,61.92,17.66,17.72,35.35,35.39,53.07,53.07-24.25,28.3-23.17,72.76,2.46,99.86,10.17,11.02,17.76,20.57,23.31,28.46-45.12,19.83-58.02,84.2-23.31,119.78,21.95,23.79,31.92,40.74,35.23,49.05v577.07c.84,32.89-19.79,58.06-45.1,76.54-31.94,26.82-36.13,74.62-9.31,106.57,28.1,32.81,135.27,164.95,166.43,190.98l-69.86,58.62c-19.15-19.17-38.31-38.33-57.46-57.46-16.96-18.19-36.43-37.93-63.07-36.73-32.28-.4-61,25.78-63.37,58.06l-1.9,21.61-51.03,42.82c-38.49,32.26-43.54,89.82-11.24,128.34,26.1,31.28,82.01,99.42,111.69,125.65,22.55,22.57,45.1,45.14,67.67,67.67,21.83,24.03,47.71,47.22,82.47,45.96,20.69,0,40.82-7.33,56.7-20.65l251.43-210.99c37.69,37.53,75.22,75.26,112.88,112.81,11.58,12.24,27.96,19.91,46.14,19.91h130.76c35.13,0,63.63-28.5,63.63-63.63v-268.77c17.34,17.34,34.65,34.69,52.03,52.01,19.33,22.03,44.62,39.45,75.2,38.69,20.69,0,40.84-7.33,56.7-20.63l193.85-162.66v238.09c-.32,39.09,35.79,58.84,58.58,84.82,20.93,20.97,41.86,41.92,62.83,62.83,18.3,18.69,36.13,40.14,65.49,39.25h130.74c35.13,0,63.63-28.5,63.63-63.63v-268.81c21.37,21.39,42.74,42.78,64.13,64.13,30.66,32.71,85.94,35.49,119.84,5.97l17.04-14.3c.4,133.04-13.82,102.52,80.33,196.31,16.08,16.14,32.2,32.24,48.33,48.33,15.46,16.92,32.97,32.62,58.24,32h130.74c35.13,0,63.63-28.5,63.63-63.63V448.54c17.8,18.67,37.43,40.3,65.33,39.01,32.3.4,61.04-25.82,63.39-58.14l1.86-21.53,51.03-42.82c38.19-30.64,43.5-91.53,11.25-128.32M2303.46,193.03l-53.95,45.26c-11.06,9.31-18.01,22.65-19.27,37.05l-2.2,25.31-67.69-80.63h-61.28v1606.14h-130.74v-452.9l-244.84,205.46c-10.41,8.73-25.92,7.37-34.65-3.04l-125.95-150.11c-4.25-5.07-3.59-12.66,1.48-16.92l15.44-12.96c33.19-27.86,52.37-68.97,52.37-112.31v-387.01l-1.06-.08c0-130.68-17.54-168.83-32.22-186.92-13.54-16.7-19.75-19.71-12.92-27.26,19.45-21.51,44.68-54.29,46.2-81.15.02-.7.06-1.4.06-2.12l259.76-217.96c15-12.58,37.39-10.63,49.97,4.39l26.36,31.42v-196.67h-451.54v1606.14h-130.74V220.01h-46.04v1029.81c0,8.69-3.85,16.94-10.51,22.53l-365.12,306.36c-10.38,8.73-25.9,7.37-34.63-3.04l-125.93-150.11c-4.25-5.07-3.59-12.66,1.48-16.92l15.44-12.96c33.19-27.86,52.37-68.97,52.37-112.31V220.01h-115.38v1606.14h-130.74v-285.61l-451.38,378.78c-10.41,8.73-25.9,7.37-34.65-3.02l-70.94-84.52c-9.75-11.62-8.25-28.92,3.35-38.67l53.95-45.24c11.06-9.29,18.01-22.63,19.27-37.03l2.24-25.35,20.49,24.45,67.67,80.67c9.71,11.56,26.94,13.06,38.51,3.36l351.5-294.98v-125.75l-244.88,205.46c-10.41,8.73-25.9,7.37-34.63-3.04l-125.97-150.11c-4.25-5.07-3.6-12.66,1.5-16.92l15.46-13c33.19-27.84,52.37-68.97,52.37-112.29v-585.68c-5.75-28.88-32.16-61.95-52.11-83.59-7.03-7.63-1.8-20.11,8.59-20.17,20.49-.12,43.24-5.23,42.98-27.5l.54-.06v-16.92c-5.75-28.88-32.16-61.95-52.11-83.59-7.03-7.65-1.8-20.13,8.59-20.19,20.49-.1,43.24-5.23,42.98-27.48l.54-.06v-198.11h-52.25l-67.65,80.63-2.24-25.31c-1.26-14.4-8.21-27.74-19.27-37.05l-53.93-45.26c-11.62-9.73-13.12-27.04-3.38-38.67l71.34-85c5.65-6.75,15.72-7.65,22.45-1.98,16.86,14.14,38.15,21.89,60.16,21.89h1906.78c22.01,0,43.3-7.75,60.16-21.89,6.75-5.67,16.8-4.77,22.47,1.98l71.34,85c9.77,11.62,8.23,28.94-3.38,38.67M1703.71,455.81v-48.89h58.26l-58.26,48.89Z"/>
  <path d="M421.55,1423.74l22.03,26.22c9.69,11.56,26.92,13.06,38.49,3.38l144.94-121.65V220.01h-205.46v1203.73Z"/>
</svg>
